<?xml version="1.0" encoding="UTF-8"?>
<!DOCTYPE svg PUBLIC "-//W3C//DTD SVG 1.1//EN" "http://www.w3.org/Graphics/SVG/1.1/DTD/svg11.dtd">
<svg version="1.2" width="108.7mm" height="126.98mm" viewBox="5388 7199 10870 12698" preserveAspectRatio="xMidYMid" fill-rule="evenodd" stroke-width="28.222" stroke-linejoin="round" xmlns="http://www.w3.org/2000/svg" xmlns:ooo="http://xml.openoffice.org/svg/export" xmlns:xlink="http://www.w3.org/1999/xlink" xmlns:presentation="http://sun.com/xmlns/staroffice/presentation" xmlns:smil="http://www.w3.org/2001/SMIL20/" xmlns:anim="urn:oasis:names:tc:opendocument:xmlns:animation:1.0" xml:space="preserve">
 <defs class="EmbeddedBulletChars">
  <g id="bullet-char-template-57356" transform="scale(0.00048828125,-0.00048828125)">
   <path d="M 580,1141 L 1163,571 580,0 -4,571 580,1141 Z"/>
  </g>
  <g id="bullet-char-template-57354" transform="scale(0.00048828125,-0.00048828125)">
   <path d="M 8,1128 L 1137,1128 1137,0 8,0 8,1128 Z"/>
  </g>
  <g id="bullet-char-template-10146" transform="scale(0.00048828125,-0.00048828125)">
   <path d="M 174,0 L 602,739 174,1481 1456,739 174,0 Z M 1358,739 L 309,1346 659,739 1358,739 Z"/>
  </g>
  <g id="bullet-char-template-10132" transform="scale(0.00048828125,-0.00048828125)">
   <path d="M 2015,739 L 1276,0 717,0 1260,543 174,543 174,936 1260,936 717,1481 1274,1481 2015,739 Z"/>
  </g>
  <g id="bullet-char-template-10007" transform="scale(0.00048828125,-0.00048828125)">
   <path d="M 0,-2 C -7,14 -16,27 -25,37 L 356,567 C 262,823 215,952 215,954 215,979 228,992 255,992 264,992 276,990 289,987 310,991 331,999 354,1012 L 381,999 492,748 772,1049 836,1024 860,1049 C 881,1039 901,1025 922,1006 886,937 835,863 770,784 769,783 710,716 594,584 L 774,223 C 774,196 753,168 711,139 L 727,119 C 717,90 699,76 672,76 641,76 570,178 457,381 L 164,-76 C 142,-110 111,-127 72,-127 30,-127 9,-110 8,-76 1,-67 -2,-52 -2,-32 -2,-23 -1,-13 0,-2 Z"/>
  </g>
  <g id="bullet-char-template-10004" transform="scale(0.00048828125,-0.00048828125)">
   <path d="M 285,-33 C 182,-33 111,30 74,156 52,228 41,333 41,471 41,549 55,616 82,672 116,743 169,778 240,778 293,778 328,747 346,684 L 369,508 C 377,444 397,411 428,410 L 1163,1116 C 1174,1127 1196,1133 1229,1133 1271,1133 1292,1118 1292,1087 L 1292,965 C 1292,929 1282,901 1262,881 L 442,47 C 390,-6 338,-33 285,-33 Z"/>
  </g>
  <g id="bullet-char-template-9679" transform="scale(0.00048828125,-0.00048828125)">
   <path d="M 813,0 C 632,0 489,54 383,161 276,268 223,411 223,592 223,773 276,916 383,1023 489,1130 632,1184 813,1184 992,1184 1136,1130 1245,1023 1353,916 1407,772 1407,592 1407,412 1353,268 1245,161 1136,54 992,0 813,0 Z"/>
  </g>
  <g id="bullet-char-template-8226" transform="scale(0.00048828125,-0.00048828125)">
   <path d="M 346,457 C 273,457 209,483 155,535 101,586 74,649 74,723 74,796 101,859 155,911 209,963 273,989 346,989 419,989 480,963 531,910 582,859 608,796 608,723 608,648 583,586 532,535 482,483 420,457 346,457 Z"/>
  </g>
  <g id="bullet-char-template-8211" transform="scale(0.00048828125,-0.00048828125)">
   <path d="M -4,459 L 1135,459 1135,606 -4,606 -4,459 Z"/>
  </g>
  <g id="bullet-char-template-61548" transform="scale(0.00048828125,-0.00048828125)">
   <path d="M 173,740 C 173,903 231,1043 346,1159 462,1274 601,1332 765,1332 928,1332 1067,1274 1183,1159 1299,1043 1357,903 1357,740 1357,577 1299,437 1183,322 1067,206 928,148 765,148 601,148 462,206 346,322 231,437 173,577 173,740 Z"/>
  </g>
 </defs>
 <g class="Page">
  <g class="com.sun.star.drawing.LineShape">
   <g id="id3">
    <rect class="BoundingBox" stroke="none" fill="none" x="5637" y="7847" width="1761" height="1779"/>
    <g style="opacity: 0.498039215686275">
     <path fill="none" stroke="rgb(255,233,148)" stroke-width="250" stroke-linejoin="round" stroke-linecap="round" d="M 5762,7972 L 7272,9500"/>
    </g>
   </g>
  </g>
  <g class="com.sun.star.drawing.LineShape">
   <g id="id4">
    <rect class="BoundingBox" stroke="none" fill="none" x="8121" y="7798" width="634" height="1111"/>
    <g style="opacity: 0.498039215686275">
     <path fill="none" stroke="rgb(255,233,148)" stroke-width="250" stroke-linejoin="round" stroke-linecap="round" d="M 8246,7923 L 8629,8783"/>
    </g>
   </g>
  </g>
  <g class="com.sun.star.drawing.LineShape">
   <g id="id5">
    <rect class="BoundingBox" stroke="none" fill="none" x="10484" y="7812" width="798" height="1686"/>
    <g style="opacity: 0.498039215686275">
     <path fill="none" stroke="rgb(255,233,148)" stroke-width="250" stroke-linejoin="round" stroke-linecap="round" d="M 11156,7937 L 10609,9372"/>
    </g>
   </g>
  </g>
  <g class="com.sun.star.drawing.LineShape">
   <g id="id6">
    <rect class="BoundingBox" stroke="none" fill="none" x="5466" y="10049" width="934" height="840"/>
    <g style="opacity: 0.498039215686275">
     <path fill="none" stroke="rgb(255,233,148)" stroke-width="250" stroke-linejoin="round" stroke-linecap="round" d="M 5591,10174 L 6274,10763"/>
    </g>
   </g>
  </g>
  <g class="com.sun.star.drawing.OpenBezierShape">
   <g id="id7">
    <rect class="BoundingBox" stroke="none" fill="none" x="5513" y="8730" width="6543" height="7805"/>
    <g style="opacity: 0.498039215686275">
     <path fill="none" stroke="rgb(255,233,148)" stroke-width="250" stroke-linejoin="round" stroke-linecap="round" d="M 8606,16409 C 7488,15411 5294,13521 5685,11991 6189,10019 8689,8320 9850,9013 11011,9705 11751,11375 11930,11869"/>
    </g>
   </g>
  </g>
  <g class="com.sun.star.drawing.OpenBezierShape">
   <g id="id8">
    <rect class="BoundingBox" stroke="none" fill="none" x="6445" y="11875" width="5483" height="2605"/>
    <g style="opacity: 0.498039215686275">
     <path fill="none" stroke="rgb(255,233,148)" stroke-width="250" stroke-linejoin="round" stroke-linecap="round" d="M 6571,14354 C 8741,12163 11801,12001 11801,12001"/>
    </g>
   </g>
  </g>
  <g class="com.sun.star.drawing.OpenBezierShape">
   <g id="id9">
    <rect class="BoundingBox" stroke="none" fill="none" x="11398" y="7872" width="1135" height="3029"/>
    <g style="opacity: 0.498039215686275">
     <path fill="none" stroke="rgb(255,233,148)" stroke-width="250" stroke-linejoin="round" stroke-linecap="round" d="M 12406,7997 C 12406,7997 11877,9980 11524,10774"/>
    </g>
   </g>
  </g>
  <g class="com.sun.star.drawing.OpenBezierShape">
   <g id="id10">
    <rect class="BoundingBox" stroke="none" fill="none" x="9884" y="7930" width="4457" height="5690"/>
    <g style="opacity: 0.498039215686275">
     <path fill="none" stroke="rgb(255,233,148)" stroke-width="250" stroke-linejoin="round" stroke-linecap="round" d="M 14215,8056 C 14215,8056 12347,12510 10010,13493"/>
    </g>
   </g>
  </g>
  <g class="com.sun.star.drawing.OpenBezierShape">
   <g id="id11">
    <rect class="BoundingBox" stroke="none" fill="none" x="5454" y="15107" width="3659" height="2632"/>
    <g style="opacity: 0.498039215686275">
     <path fill="none" stroke="rgb(255,233,148)" stroke-width="250" stroke-linejoin="round" stroke-linecap="round" d="M 5580,15232 C 5580,15232 7831,17051 8987,17613"/>
    </g>
   </g>
  </g>
  <g class="com.sun.star.drawing.OpenBezierShape">
   <g id="id12">
    <rect class="BoundingBox" stroke="none" fill="none" x="8063" y="13055" width="2478" height="6791"/>
    <g style="opacity: 0.498039215686275">
     <path fill="none" stroke="rgb(255,233,148)" stroke-width="250" stroke-linejoin="round" stroke-linecap="round" d="M 8193,13181 C 8103,15858 9361,19033 10414,19720"/>
    </g>
   </g>
  </g>
  <g class="com.sun.star.drawing.OpenBezierShape">
   <g id="id13">
    <rect class="BoundingBox" stroke="none" fill="none" x="5434" y="15711" width="4312" height="3243"/>
    <g style="opacity: 0.498039215686275">
     <path fill="none" stroke="rgb(255,233,148)" stroke-width="250" stroke-linejoin="round" stroke-linecap="round" d="M 5559,15836 C 6667,17378 8265,18479 9620,18828"/>
    </g>
   </g>
  </g>
  <g class="com.sun.star.drawing.LineShape">
   <g id="id14">
    <rect class="BoundingBox" stroke="none" fill="none" x="5480" y="17749" width="2345" height="2089"/>
    <g style="opacity: 0.498039215686275">
     <path fill="none" stroke="rgb(255,233,148)" stroke-width="250" stroke-linejoin="round" stroke-linecap="round" d="M 5605,17874 L 7699,19712"/>
    </g>
   </g>
  </g>
  <g class="com.sun.star.drawing.OpenBezierShape">
   <g id="id15">
    <rect class="BoundingBox" stroke="none" fill="none" x="9238" y="12574" width="1950" height="7245"/>
    <g style="opacity: 0.498039215686275">
     <path fill="none" stroke="rgb(255,233,148)" stroke-width="250" stroke-linejoin="round" stroke-linecap="round" d="M 9364,12700 C 11759,15699 10892,19388 10972,19693"/>
    </g>
   </g>
  </g>
  <g class="com.sun.star.drawing.OpenBezierShape">
   <g id="id16">
    <rect class="BoundingBox" stroke="none" fill="none" x="11450" y="14721" width="1936" height="5083"/>
    <g style="opacity: 0.498039215686275">
     <path fill="none" stroke="rgb(255,233,148)" stroke-width="250" stroke-linejoin="round" stroke-linecap="round" d="M 13259,14846 C 11818,16184 11363,18580 11664,19678"/>
    </g>
   </g>
  </g>
  <g class="com.sun.star.drawing.OpenBezierShape">
   <g id="id17">
    <rect class="BoundingBox" stroke="none" fill="none" x="12619" y="16058" width="1692" height="3760"/>
    <g style="opacity: 0.498039215686275">
     <path fill="none" stroke="rgb(255,233,148)" stroke-width="250" stroke-linejoin="round" stroke-linecap="round" d="M 14185,16184 C 12744,17522 12568,18595 12869,19692"/>
    </g>
   </g>
  </g>
  <g class="com.sun.star.drawing.OpenBezierShape">
   <g id="id18">
    <rect class="BoundingBox" stroke="none" fill="none" x="12618" y="17323" width="1532" height="2485"/>
    <g style="opacity: 0.498039215686275">
     <path fill="none" stroke="rgb(255,233,148)" stroke-width="250" stroke-linejoin="round" stroke-linecap="round" d="M 14023,17448 C 13435,18066 13347,18418 12744,19682"/>
    </g>
   </g>
  </g>
  <g class="com.sun.star.drawing.OpenBezierShape">
   <g id="id19">
    <rect class="BoundingBox" stroke="none" fill="none" x="10466" y="10885" width="5639" height="4216"/>
    <g style="opacity: 0.498039215686275">
     <path fill="none" stroke="rgb(255,233,148)" stroke-width="250" stroke-linejoin="round" stroke-linecap="round" d="M 15978,11010 C 13626,11215 11612,13038 10591,14975"/>
    </g>
   </g>
  </g>
  <g class="com.sun.star.drawing.OpenBezierShape">
   <g id="id20">
    <rect class="BoundingBox" stroke="none" fill="none" x="11787" y="12535" width="4335" height="5700"/>
    <g style="opacity: 0.498039215686275">
     <path fill="none" stroke="rgb(255,222,89)" stroke-width="250" stroke-linejoin="round" stroke-linecap="round" d="M 15096,18109 C 16801,16166 15719,14299 14832,13376 13945,12454 12388,12476 11913,13141"/>
    </g>
   </g>
  </g>
  <g class="com.sun.star.drawing.OpenBezierShape">
   <g id="id21">
    <rect class="BoundingBox" stroke="none" fill="none" x="11336" y="14956" width="1054" height="1704"/>
    <g style="opacity: 0.498039215686275">
     <path fill="none" stroke="rgb(255,233,148)" stroke-width="250" stroke-linejoin="round" stroke-linecap="round" d="M 12264,15081 C 11880,15689 12065,15270 11462,16534"/>
    </g>
   </g>
  </g>
  <g class="com.sun.star.drawing.OpenBezierShape">
   <g id="id22">
    <rect class="BoundingBox" stroke="none" fill="none" x="10763" y="16001" width="1263" height="1097"/>
    <g style="opacity: 0.498039215686275">
     <path fill="none" stroke="rgb(255,233,148)" stroke-width="250" stroke-linejoin="round" stroke-linecap="round" d="M 10888,16126 C 11496,16668 11364,16642 11899,16971"/>
    </g>
   </g>
  </g>
  <g class="com.sun.star.drawing.LineShape">
   <g id="id23">
    <rect class="BoundingBox" stroke="none" fill="none" x="10988" y="17350" width="823" height="419"/>
    <g style="opacity: 0.498039215686275">
     <path fill="none" stroke="rgb(255,233,148)" stroke-width="250" stroke-linejoin="round" stroke-linecap="round" d="M 11113,17475 L 11685,17643"/>
    </g>
   </g>
  </g>
  <g class="com.sun.star.drawing.OpenBezierShape">
   <g id="id24">
    <rect class="BoundingBox" stroke="none" fill="none" x="14241" y="11516" width="1920" height="1562"/>
    <g style="opacity: 0.498039215686275">
     <path fill="none" stroke="rgb(255,233,148)" stroke-width="250" stroke-linejoin="round" stroke-linecap="round" d="M 16035,11642 C 15492,11893 15201,12039 14367,12951"/>
    </g>
   </g>
  </g>
  <g class="com.sun.star.drawing.OpenBezierShape">
   <g id="id25">
    <rect class="BoundingBox" stroke="none" fill="none" x="14877" y="12655" width="1258" height="872"/>
    <g style="opacity: 0.498039215686275">
     <path fill="none" stroke="rgb(255,233,148)" stroke-width="250" stroke-linejoin="round" stroke-linecap="round" d="M 16009,12781 C 15466,13032 15743,12924 15002,13401"/>
    </g>
   </g>
  </g>
  <g class="com.sun.star.drawing.LineShape">
   <g id="id26">
    <rect class="BoundingBox" stroke="none" fill="none" x="15420" y="13752" width="766" height="740"/>
    <g style="opacity: 0.498039215686275">
     <path fill="none" stroke="rgb(255,233,148)" stroke-width="250" stroke-linejoin="round" stroke-linecap="round" d="M 16060,13877 L 15545,14366"/>
    </g>
   </g>
  </g>
  <g class="com.sun.star.drawing.OpenBezierShape">
   <g id="id27">
    <rect class="BoundingBox" stroke="none" fill="none" x="11397" y="13591" width="3800" height="4632"/>
    <g style="opacity: 0.498039215686275">
     <path fill="none" stroke="rgb(255,233,148)" stroke-width="250" stroke-linejoin="round" stroke-linecap="round" d="M 15068,18097 C 15148,17343 12700,13189 11522,13772"/>
    </g>
   </g>
  </g>
  <g class="com.sun.star.drawing.OpenBezierShape">
   <g id="id28">
    <rect class="BoundingBox" stroke="none" fill="none" x="11397" y="13648" width="1351" height="1996"/>
    <g style="opacity: 0.498039215686275">
     <path fill="none" stroke="rgb(255,233,148)" stroke-width="250" stroke-linejoin="round" stroke-linecap="round" d="M 12621,15517 C 12118,14882 11536,14182 11522,13773"/>
    </g>
   </g>
  </g>
  <g class="com.sun.star.drawing.OpenBezierShape">
   <g id="id29">
    <rect class="BoundingBox" stroke="none" fill="none" x="13580" y="16676" width="1537" height="1535"/>
    <g style="opacity: 0.498039215686275">
     <path fill="none" stroke="rgb(255,233,148)" stroke-width="250" stroke-linejoin="round" stroke-linecap="round" d="M 14990,18084 C 14248,17740 14592,17871 13706,16801"/>
    </g>
   </g>
  </g>
  <g class="com.sun.star.drawing.OpenBezierShape">
   <g id="id30">
    <rect class="BoundingBox" stroke="none" fill="none" x="13276" y="17681" width="2871" height="2131"/>
    <g style="opacity: 0.498039215686275">
     <path fill="none" stroke="rgb(255,233,148)" stroke-width="250" stroke-linejoin="round" stroke-linecap="round" d="M 13401,19685 C 14301,18773 15174,18056 16021,17806"/>
    </g>
   </g>
  </g>
  <g class="com.sun.star.drawing.OpenBezierShape">
   <g id="id31">
    <rect class="BoundingBox" stroke="none" fill="none" x="14653" y="19016" width="1495" height="809"/>
    <g style="opacity: 0.498039215686275">
     <path fill="none" stroke="rgb(255,233,148)" stroke-width="250" stroke-linejoin="round" stroke-linecap="round" d="M 14778,19699 C 15386,19354 15796,19182 16021,19142"/>
    </g>
   </g>
  </g>
  <g class="com.sun.star.drawing.OpenBezierShape">
   <g id="id32">
    <rect class="BoundingBox" stroke="none" fill="none" x="6677" y="14082" width="1612" height="637"/>
    <g style="opacity: 0.498039215686275">
     <path fill="none" stroke="rgb(255,233,148)" stroke-width="250" stroke-linejoin="round" stroke-linecap="round" d="M 6802,14593 C 7620,14486 7938,14248 8163,14208"/>
    </g>
   </g>
  </g>
  <g class="com.sun.star.drawing.PolyLineShape">
   <g id="id33">
    <rect class="BoundingBox" stroke="none" fill="none" x="5388" y="7724" width="10870" height="12173"/>
    <g style="opacity: 0.498039215686275">
     <path fill="none" stroke="rgb(255,233,148)" stroke-width="350" stroke-linejoin="round" stroke-linecap="round" d="M 5566,7899 L 16082,7899 16082,19721 5563,19721 5563,7903"/>
    </g>
   </g>
  </g>
  <g class="com.sun.star.drawing.EllipseShape">
   <g id="id34">
    <rect class="BoundingBox" stroke="none" fill="none" x="10264" y="7199" width="1118" height="685"/>
    <g style="opacity: 0.498039215686275">
     <path fill="none" stroke="rgb(255,233,148)" stroke-width="250" stroke-linejoin="round" d="M 10389,7758 C 10389,7681 10409,7607 10447,7541 10485,7475 10540,7420 10606,7382 10672,7344 10746,7324 10823,7324 10899,7324 10973,7344 11039,7382 11105,7420 11160,7475 11198,7541 11236,7607 11256,7681 11256,7758 L 11256,7758"/>
    </g>
   </g>
  </g>
 </g>
</svg>